<svg width="1174" height="175" viewBox="0 0 1174 175" fill="none" xmlns="http://www.w3.org/2000/svg">
<path d="M87.4798 2.34177e-06C70.1748 0.00400581 53.2595 5.13921 38.8729 14.7563C24.4863 24.3733 13.2743 38.0403 6.65476 54.0292C0.035202 70.0181 -1.69469 87.6108 1.6838 104.583C5.06229 121.555 13.3975 137.144 25.6354 149.379C37.8733 161.614 53.4643 169.946 70.4371 173.32C87.4098 176.695 105.002 174.961 120.989 168.337C136.977 161.714 150.641 150.499 160.255 136.11C169.869 121.721 175 104.805 175 87.5C175 76.0076 172.736 64.6278 168.337 54.0105C163.939 43.3932 157.492 33.7464 149.365 25.621C141.237 17.4956 131.589 11.0508 120.971 6.65475C110.352 2.25865 98.9721 -0.00265639 87.4798 2.34177e-06ZM63.5223 110.051C61.2753 107.186 51.7207 95.0304 46.1336 88.087C43.8477 84.8889 42.6615 81.0352 42.7531 77.1052C42.6065 73.1709 43.7825 69.301 46.0932 66.1133C51.7612 58.9676 61.2753 46.9635 63.5223 44.1903H85.9312L63.8765 71.8623C62.7201 73.3519 62.0924 75.184 62.0924 77.0698C62.0924 78.9556 62.7201 80.7877 63.8765 82.2773L85.9312 110.051H63.5223ZM128.866 108.887C123.198 116.032 113.684 128.036 111.437 130.82H89.0486L111.103 103.138C112.26 101.648 112.887 99.8159 112.887 97.9301C112.887 96.0443 112.26 94.2122 111.103 92.7226L89.0688 64.9493H111.457C113.715 67.8137 123.269 79.9696 128.846 86.9129C131.14 90.1078 132.33 93.9629 132.237 97.8947C132.37 101.832 131.184 105.701 128.866 108.887Z" fill="#3367D6"/>
<path fill-rule="evenodd" clip-rule="evenodd" d="M856.427 133.16H848.925C833.921 133.16 825.57 124.242 825.57 109.663V27H847.51V107.115C847.51 111.645 849.775 113.91 853.738 113.91H856.427V133.16ZM810.624 79.0891C811.898 113.91 790.949 135 759.667 135C728.668 135 707.436 112.919 707.436 83.6186C707.436 54.46 728.81 32.2372 759.667 32.2372C785.712 32.2372 803.971 48.0904 808.784 68.6147H784.013C780.757 60.1219 771.982 53.7523 759.667 53.7523C742.115 53.7523 730.65 66.633 730.65 83.6186C730.65 101.029 742.115 114.051 759.667 114.051C773.68 114.051 783.872 106.549 785.712 97.4902H758.676V79.0891H810.624ZM905.48 135C929.543 135 945.821 117.873 945.821 95.7916C945.821 73.7104 929.543 56.5832 905.621 56.5832C881.417 56.5832 865.281 73.7104 865.281 95.7916C865.281 117.873 881.559 135 905.48 135ZM905.48 115.183C895.147 115.183 887.503 107.257 887.503 95.7916C887.503 84.4679 895.147 76.3997 905.48 76.3997C915.954 76.3997 923.598 84.4679 923.598 95.7916C923.598 107.115 915.954 115.183 905.48 115.183ZM1038.2 96.2163C1038.2 119.713 1024.18 135 1003.8 135C991.346 135 985.117 128.064 982.994 124.667H981.862V133.16H960.205V27H982.145V66.9161H983.277C985.825 62.9528 992.478 56.5832 1004.37 56.5832C1024.47 56.5832 1038.2 72.7195 1038.2 96.2163ZM981.72 95.7916C981.72 106.832 988.373 115.183 998.847 115.183C1009.04 115.183 1015.97 107.398 1015.97 95.7916C1015.97 84.3263 1009.04 76.3997 998.847 76.3997C988.798 76.3997 981.72 83.9017 981.72 95.7916ZM1082.97 135C1095.29 135 1101.51 128.064 1103.64 124.667H1104.77V133.16H1126.57V58.4233H1104.63V66.9161H1103.5C1100.95 62.9528 1094.15 56.5832 1082.41 56.5832C1062.31 56.5832 1048.43 72.7195 1048.43 96.2163C1048.43 119.713 1062.45 135 1082.97 135ZM1087.93 115.183C1077.59 115.183 1070.66 107.398 1070.66 95.7916C1070.66 84.3263 1077.59 76.3997 1087.78 76.3997C1097.83 76.3997 1105.05 83.9017 1105.05 95.7916C1105.05 106.832 1098.4 115.183 1087.93 115.183ZM1173.52 133.16H1166.02C1151.02 133.16 1142.67 124.242 1142.67 109.663V27H1164.61V107.115C1164.61 111.645 1166.87 113.91 1170.84 113.91H1173.52V133.16ZM244.696 101.132H223.381C223.239 121.466 237.925 135.16 261.974 135.15C286.832 135.15 300.81 121.597 300.81 103.237C300.81 79.2006 281.794 75.4043 266.644 72.3799C256.614 70.3776 248.279 68.7137 248.279 61.7388C248.279 56.506 252.794 52.5587 261.549 52.5587C270.729 52.5587 275.81 57.3562 275.951 64.1376H298.219C297.368 43.2368 282.115 32.6498 261.498 32.6498C238.765 32.6498 225.921 45.7773 225.921 62.2955C225.921 86.5906 244.351 90.5156 259.169 93.6713C269.131 95.7927 277.46 97.5664 277.46 104.947C277.46 111.152 271.954 114.684 262.632 114.684C251.336 114.684 245.122 108.895 244.696 101.132ZM336.154 61.6904H315.536V133.31H337.419V91.5083C337.419 83.6034 342.652 77.2471 350.131 77.2471C357.611 77.2471 362.135 82.7734 362.135 90.405V133.33H384.018V83.6236C384.018 68.0669 373.856 56.9333 357.328 56.9333C347.308 56.9333 340.243 61.903 337.277 66.9637H336.154V61.6904ZM396.658 96.4779C396.658 73.0366 410.494 56.9333 430.545 56.9333C442.265 56.9333 449.047 63.2896 451.587 67.2471H452.721V61.6904H474.593V133.33H452.812V124.858H451.689C449.573 128.249 443.359 135.162 431.071 135.162C410.595 135.162 396.658 119.889 396.658 96.4779ZM453.136 96.0528C453.136 84.1904 445.94 76.7006 435.929 76.7006C425.919 76.7006 418.844 84.6155 418.844 96.0528C418.844 107.49 425.767 115.395 436.051 115.395C446.466 115.395 453.095 107.065 453.095 96.0528H453.136ZM512.935 61.6904H491.325V165.81L513.218 157.045V124.858H514.352C516.75 128.947 523.238 135.162 535.384 135.162C555.435 135.162 569.139 119.069 569.139 95.6277C569.139 72.1864 555.151 56.9333 534.817 56.9333C522.398 56.9333 516.184 63.7147 514.068 67.1054H512.935V61.6904ZM529.908 76.7512C540.08 76.7512 546.993 84.3827 546.993 96.1034L546.963 96.0528C546.963 107.49 539.908 115.445 529.908 115.445C519.908 115.445 512.823 107.966 512.823 96.1034C512.823 84.9495 519.463 76.7512 529.908 76.7512ZM583.146 61.6904H604.755V67.1054H605.879C608.004 63.7147 614.209 56.9333 626.638 56.9333C646.972 56.9333 660.95 72.1864 660.95 95.6277C660.95 119.069 647.255 135.162 627.205 135.162C615.059 135.162 608.561 128.947 606.162 124.858H605.039V157.045L583.146 165.81V61.6904ZM638.814 96.1034C638.814 84.3827 631.891 76.7512 621.729 76.7512C611.273 76.7512 604.644 84.9495 604.644 96.1034C604.644 107.966 611.729 115.445 621.729 115.445C631.729 115.445 638.784 107.49 638.784 96.0528L638.814 96.1034Z" fill="#3367D6"/>
</svg>
