<svg width="1175" height="175" viewBox="0 0 1175 175" fill="none" xmlns="http://www.w3.org/2000/svg">
<path d="M88.0433 2.34177e-06C70.7383 0.00400581 53.8231 5.13921 39.4365 14.7563C25.0498 24.3733 13.8379 38.0403 7.21833 54.0292C0.59877 70.0181 -1.13113 87.6108 2.24737 104.583C5.62586 121.555 13.961 137.144 26.1989 149.379C38.4368 161.614 54.0278 169.946 71.0006 173.32C87.9734 176.695 105.566 174.961 121.553 168.337C137.54 161.714 151.205 150.499 160.819 136.11C170.432 121.721 175.564 104.805 175.564 87.5C175.564 76.0076 173.3 64.6278 168.901 54.0105C164.503 43.3932 158.055 33.7464 149.928 25.621C141.801 17.4956 132.153 11.0508 121.534 6.65475C110.916 2.25865 99.5357 -0.00265639 88.0433 2.34177e-06ZM64.0858 110.051C61.8389 107.186 52.2842 95.0304 46.6972 88.087C44.4113 84.8889 43.225 81.0352 43.3166 77.1052C43.1701 73.1709 44.346 69.301 46.6567 66.1133C52.3247 58.9676 61.8389 46.9635 64.0858 44.1903H86.4947L64.4401 71.8623C63.2837 73.3519 62.656 75.184 62.656 77.0698C62.656 78.9556 63.2837 80.7877 64.4401 82.2773L86.4947 110.051H64.0858ZM129.43 108.887C123.762 116.032 114.248 128.036 112.001 130.82H89.6121L111.667 103.138C112.823 101.648 113.451 99.8159 113.451 97.9301C113.451 96.0443 112.823 94.2122 111.667 92.7226L89.6324 64.9493H112.021C114.278 67.8137 123.833 79.9696 129.41 86.9129C131.703 90.1078 132.893 93.9629 132.8 97.8947C132.933 101.832 131.747 105.701 129.43 108.887Z" fill="white"/>
<path fill-rule="evenodd" clip-rule="evenodd" d="M856.991 133.16H849.489C834.485 133.16 826.134 124.242 826.134 109.663V27H848.074V107.115C848.074 111.645 850.338 113.91 854.302 113.91H856.991V133.16ZM811.187 79.0891C812.461 113.91 791.512 135 760.231 135C729.232 135 708 112.919 708 83.6186C708 54.46 729.374 32.2372 760.231 32.2372C786.275 32.2372 804.535 48.0904 809.347 68.6147H784.577C781.321 60.1219 772.545 53.7523 760.231 53.7523C742.679 53.7523 731.214 66.633 731.214 83.6186C731.214 101.029 742.679 114.051 760.231 114.051C774.244 114.051 784.435 106.549 786.275 97.4902H759.24V79.0891H811.187ZM906.043 135C930.106 135 946.384 117.873 946.384 95.7916C946.384 73.7104 930.106 56.5832 906.185 56.5832C881.981 56.5832 865.844 73.7104 865.844 95.7916C865.844 117.873 882.122 135 906.043 135ZM906.043 115.183C895.711 115.183 888.067 107.257 888.067 95.7916C888.067 84.4679 895.711 76.3997 906.043 76.3997C916.518 76.3997 924.161 84.4679 924.161 95.7916C924.161 107.115 916.518 115.183 906.043 115.183ZM1038.76 96.2163C1038.76 119.713 1024.75 135 1004.37 135C991.909 135 985.681 128.064 983.558 124.667H982.425V133.16H960.769V27H982.709V66.9161H983.841C986.389 62.9528 993.042 56.5832 1004.93 56.5832C1025.03 56.5832 1038.76 72.7195 1038.76 96.2163ZM982.284 95.7916C982.284 106.832 988.937 115.183 999.411 115.183C1009.6 115.183 1016.54 107.398 1016.54 95.7916C1016.54 84.3263 1009.6 76.3997 999.411 76.3997C989.361 76.3997 982.284 83.9017 982.284 95.7916ZM1083.54 135C1095.85 135 1102.08 128.064 1104.2 124.667H1105.33V133.16H1127.13V58.4233H1105.19V66.9161H1104.06C1101.51 62.9528 1094.72 56.5832 1082.97 56.5832C1062.87 56.5832 1049 72.7195 1049 96.2163C1049 119.713 1063.01 135 1083.54 135ZM1088.49 115.183C1078.16 115.183 1071.22 107.398 1071.22 95.7916C1071.22 84.3263 1078.16 76.3997 1088.35 76.3997C1098.4 76.3997 1105.62 83.9017 1105.62 95.7916C1105.62 106.832 1098.96 115.183 1088.49 115.183ZM1174.09 133.16H1166.59C1151.58 133.16 1143.23 124.242 1143.23 109.663V27H1165.17V107.115C1165.17 111.645 1167.44 113.91 1171.4 113.91H1174.09V133.16ZM245.26 101.132H223.944C223.803 121.466 238.489 135.16 262.537 135.15C287.396 135.15 301.373 121.597 301.373 103.237C301.373 79.2006 282.357 75.4043 267.208 72.3799C257.178 70.3776 248.843 68.7137 248.843 61.7388C248.843 56.506 253.357 52.5587 262.112 52.5587C271.292 52.5587 276.373 57.3562 276.515 64.1376H298.782C297.932 43.2368 282.679 32.6498 262.062 32.6498C239.329 32.6498 226.485 45.7773 226.485 62.2955C226.485 86.5906 244.915 90.5156 259.733 93.6713C269.694 95.7927 278.023 97.5664 278.023 104.947C278.023 111.152 272.517 114.684 263.195 114.684C251.9 114.684 245.685 108.895 245.26 101.132ZM336.717 61.6904H316.1V133.31H337.982V91.5083C337.982 83.6034 343.215 77.2471 350.695 77.2471C358.175 77.2471 362.699 82.7734 362.699 90.405V133.33H384.582V83.6236C384.582 68.0669 374.42 56.9333 357.891 56.9333C347.871 56.9333 340.806 61.903 337.841 66.9637H336.717V61.6904ZM397.222 96.4779C397.222 73.0366 411.058 56.9333 431.108 56.9333C442.829 56.9333 449.61 63.2896 452.151 67.2471H453.285V61.6904H475.157V133.33H453.376V124.858H452.252C450.137 128.249 443.922 135.162 431.635 135.162C411.159 135.162 397.222 119.889 397.222 96.4779ZM453.7 96.0528C453.7 84.1904 446.503 76.7006 436.493 76.7006C426.483 76.7006 419.408 84.6155 419.408 96.0528C419.408 107.49 426.331 115.395 436.614 115.395C447.029 115.395 453.659 107.065 453.659 96.0528H453.7ZM513.498 61.6904H491.889V165.81L513.782 157.045V124.858H514.915C517.314 128.947 523.802 135.162 535.948 135.162C555.998 135.162 569.703 119.069 569.703 95.6277C569.703 72.1864 555.715 56.9333 535.381 56.9333C522.962 56.9333 516.747 63.7147 514.632 67.1054H513.498V61.6904ZM530.472 76.7512C540.644 76.7512 547.557 84.3827 547.557 96.1034L547.527 96.0528C547.527 107.49 540.472 115.445 530.472 115.445C520.472 115.445 513.387 107.966 513.387 96.1034C513.387 84.9495 520.027 76.7512 530.472 76.7512ZM583.71 61.6904H605.319V67.1054H606.442C608.568 63.7147 614.772 56.9333 627.201 56.9333C647.535 56.9333 661.513 72.1864 661.513 95.6277C661.513 119.069 647.819 135.162 627.768 135.162C615.623 135.162 609.125 128.947 606.726 124.858H605.602V157.045L583.71 165.81V61.6904ZM639.378 96.1034C639.378 84.3827 632.454 76.7512 622.293 76.7512C611.837 76.7512 605.208 84.9495 605.208 96.1034C605.208 107.966 612.293 115.445 622.293 115.445C632.293 115.445 639.347 107.49 639.347 96.0528L639.378 96.1034Z" fill="white"/>
</svg>
